<?xml version="1.0" encoding="utf-8"?>
<!-- Generator: Adobe Illustrator 27.7.0, SVG Export Plug-In . SVG Version: 6.00 Build 0)  -->
<svg version="1.1" id="visual" xmlns="http://www.w3.org/2000/svg" xmlns:xlink="http://www.w3.org/1999/xlink" x="0px" y="0px"
	 viewBox="0 0 331.2 600" style="enable-background:new 0 0 331.2 600;" xml:space="preserve">
<style type="text/css">
	.st0{opacity:0.3;fill:#84FDCB;}
	.st1{fill:#AFFFDD;}
</style>
<path class="st0" d="M54.4,600l36-50c36-50,108-150,100.5-250S96.4,100,52.9,50L9.4,0h307l-7.5,50c-7.5,50-22.5,150-64.5,250
	s-111,200-145.5,250l-34.5,50H54.4z"/>
<path class="st1" d="M54.7,600l34.5-50c34.5-50,103.5-150,145.5-250s57-200,64.5-250l7.5-50h199v50c0,50,0,150,0,250s0,200,0,250v50
	H54.7z"/>
</svg>
